<svg width="382.52000732421874px" height="83.639990234375px" xmlns="http://www.w3.org/2000/svg" viewBox="58.73999633789063 33.1800048828125 382.52000732421874 83.639990234375" style="background: rgba(0, 0, 0, 0) none repeat scroll 0% 0%;" preserveAspectRatio="xMidYMid"><defs><linearGradient id="editing-outline-gradient" x1="-0.41354545764260087" x2="1.4135454576426008" y1="0.09326335692419985" y2="0.9067366430758002"><stop offset="0" stop-color="#ee4208"></stop><stop offset="1" stop-color="#4139ff"></stop></linearGradient><filter id="editing-outline" x="-100%" y="-100%" width="300%" height="300%"><feMorphology in="SourceGraphic" operator="dilate" radius="1" result="outline"></feMorphology><feComposite operator="out" in="outline" in2="SourceAlpha"></feComposite></filter></defs><g filter="url(#editing-outline)"><g transform="translate(117.224609375, 91.294921875)"><path d="M15.48-17.65L15.48-17.65L15.48-17.65Q17.50-17.65 19.31-17.24L19.31-17.24L19.31-17.24Q21.11-16.82 22.47-15.81L22.47-15.81L22.47-15.81Q23.83-14.80 24.63-13.12L24.63-13.12L24.63-13.12Q25.43-11.43 25.43-8.89L25.43-8.89L25.43-8.89Q25.43-6.38 24.76-4.64L24.76-4.64L24.76-4.64Q24.10-2.90 22.83-1.82L22.83-1.82L22.83-1.82Q21.56-0.74 19.71-0.26L19.71-0.26L19.71-0.26Q17.86 0.22 15.48 0.22L15.48 0.22L15.48 0.22Q13.66 0.22 12.13 0L12.13 0L12.13 0Q10.60-0.22 9.35-0.57L9.35-0.57L9.35-0.57Q8.11-0.92 7.12-1.35L7.12-1.35L7.12-1.35Q6.13-1.77 5.37-2.18L5.37-2.18L5.32 6.00L5.32 6.00Q5.32 6.29 5.31 6.57L5.31 6.57L5.31 6.57Q5.30 6.85 5.21 7.08L5.21 7.08L5.21 7.08Q5.12 7.30 4.95 7.43L4.95 7.43L4.95 7.43Q4.78 7.57 4.45 7.57L4.45 7.57L4.45 7.57Q4.11 7.57 3.94 7.42L3.94 7.42L3.94 7.42Q3.77 7.28 3.68 7.04L3.68 7.04L3.68 7.04Q3.59 6.81 3.58 6.50L3.58 6.50L3.58 6.50Q3.57 6.20 3.57 5.86L3.57 5.86L3.57-16.10L3.57-16.10Q3.57-16.82 3.84-17.01L3.84-17.01L3.84-17.01Q4.11-17.21 4.42-17.21L4.42-17.21L4.42-17.21Q4.81-17.21 5.03-17.01L5.03-17.01L5.03-17.01Q5.26-16.82 5.26-16.10L5.26-16.10L5.26-13.14L5.26-13.14Q5.53-14.08 6.18-14.79L6.18-14.79L6.18-14.79Q6.83-15.50 7.70-16.00L7.70-16.00L7.70-16.00Q8.58-16.51 9.60-16.83L9.60-16.83L9.60-16.83Q10.62-17.16 11.67-17.34L11.67-17.34L11.67-17.34Q12.71-17.52 13.70-17.59L13.70-17.59L13.70-17.59Q14.69-17.65 15.48-17.65ZM15.48-16.33L15.48-16.33L15.48-16.33Q14.13-16.31 12.53-16.12L12.53-16.12L12.53-16.12Q10.94-15.92 9.48-15.43L9.48-15.43L9.48-15.43Q8.02-14.94 6.90-14.06L6.90-14.06L6.90-14.06Q5.77-13.18 5.37-11.77L5.37-11.77L5.37-3.14L5.37-3.14Q6.33-2.79 7.45-2.41L7.45-2.41L7.45-2.41Q8.56-2.04 9.82-1.75L9.82-1.75L9.82-1.75Q11.07-1.46 12.49-1.28L12.49-1.28L12.49-1.28Q13.90-1.10 15.48-1.10L15.48-1.10L15.48-1.10Q17.63-1.10 19.17-1.55L19.17-1.55L19.17-1.55Q20.71-2.00 21.71-2.95L21.71-2.95L21.71-2.95Q22.71-3.91 23.17-5.38L23.17-5.38L23.17-5.38Q23.63-6.85 23.63-8.89L23.63-8.89L23.63-8.89Q23.63-11.01 22.99-12.44L22.99-12.44L22.99-12.44Q22.35-13.88 21.25-14.73L21.25-14.73L21.25-14.73Q20.15-15.59 18.65-15.96L18.65-15.96L18.65-15.96Q17.16-16.33 15.48-16.33ZM49.26-1.57L49.26-3.17L49.26-3.17Q48.79-2.61 48.06-2.01L48.06-2.01L48.06-2.01Q47.33-1.42 46.26-0.92L46.26-0.92L46.26-0.92Q45.19-0.43 43.75-0.10L43.75-0.10L43.75-0.10Q42.32 0.22 40.43 0.22L40.43 0.22L40.43 0.22Q38.03 0.22 36.33-0.24L36.33-0.24L36.33-0.24Q34.63-0.70 33.56-1.67L33.56-1.67L33.56-1.67Q32.48-2.65 31.98-4.17L31.98-4.17L31.98-4.17Q31.49-5.68 31.49-7.82L31.49-7.82L31.49-15.59L31.49-15.59Q31.49-15.88 31.52-16.17L31.52-16.17L31.52-16.17Q31.56-16.46 31.65-16.69L31.65-16.69L31.65-16.69Q31.74-16.91 31.92-17.06L31.92-17.06L31.92-17.06Q32.10-17.21 32.39-17.21L32.39-17.21L32.39-17.21Q32.73-17.21 32.91-17.06L32.91-17.06L32.91-17.06Q33.08-16.91 33.16-16.69L33.16-16.69L33.16-16.69Q33.24-16.46 33.26-16.17L33.26-16.17L33.26-16.17Q33.29-15.88 33.29-15.59L33.29-15.59L33.29-7.82L33.29-7.82Q33.29-5.93 33.60-4.65L33.60-4.65L33.60-4.65Q33.92-3.37 34.71-2.58L34.71-2.58L34.71-2.58Q35.51-1.80 36.89-1.45L36.89-1.45L36.89-1.45Q38.27-1.10 40.43-1.10L40.43-1.10L40.43-1.10Q42.00-1.10 43.34-1.37L43.34-1.37L43.34-1.37Q44.67-1.64 45.78-2.06L45.78-2.06L45.78-2.06Q46.88-2.47 47.75-2.99L47.75-2.99L47.75-2.99Q48.63-3.50 49.28-4.00L49.28-4.00L49.28-15.59L49.28-15.59Q49.28-15.88 49.30-16.17L49.30-16.17L49.30-16.17Q49.32-16.46 49.40-16.69L49.40-16.69L49.40-16.69Q49.48-16.91 49.65-17.06L49.65-17.06L49.65-17.06Q49.82-17.21 50.11-17.21L50.11-17.21L50.11-17.21Q50.45-17.21 50.64-17.06L50.64-17.06L50.64-17.06Q50.83-16.91 50.93-16.69L50.93-16.69L50.93-16.69Q51.03-16.46 51.05-16.17L51.05-16.17L51.05-16.17Q51.08-15.88 51.08-15.59L51.08-15.59L51.08-1.57L51.08-1.57Q51.08-1.28 51.04-1.00L51.04-1.00L51.04-1.00Q51.01-0.72 50.92-0.49L50.92-0.49L50.92-0.49Q50.83-0.27 50.66-0.13L50.66-0.13L50.66-0.13Q50.49 0 50.22 0L50.22 0L50.22 0Q49.59 0 49.43-0.42L49.43-0.42L49.43-0.42Q49.26-0.83 49.26-1.37L49.26-1.37L49.26-1.57ZM60.04-23.45L60.04-1.57L60.04-1.57Q60.04-0.92 59.88-0.46L59.88-0.46L59.88-0.46Q59.72 0 59.16 0L59.16 0L59.16 0Q58.83 0 58.65-0.12L58.65-0.12L58.65-0.12Q58.47-0.25 58.38-0.46L58.38-0.46L58.38-0.46Q58.29-0.67 58.26-0.94L58.26-0.94L58.26-0.94Q58.24-1.21 58.24-1.53L58.24-1.53L58.24-23.40L58.24-23.40Q58.24-23.74 58.26-24.03L58.26-24.03L58.26-24.03Q58.29-24.33 58.39-24.54L58.39-24.54L58.39-24.54Q58.49-24.75 58.68-24.89L58.68-24.89L58.68-24.89Q58.87-25.02 59.21-25.02L59.21-25.02L59.21-25.02Q59.48-25.02 59.65-24.89L59.65-24.89L59.65-24.89Q59.81-24.75 59.90-24.53L59.90-24.53L59.90-24.53Q59.99-24.30 60.02-24.02L60.02-24.02L60.02-24.02Q60.04-23.74 60.04-23.45L60.04-23.45ZM85.89-4.69L85.89-4.69L85.89-4.69Q85.89-5.88 85.05-6.54L85.05-6.54L85.05-6.54Q84.21-7.19 82.82-7.49L82.82-7.49L82.82-7.49Q81.44-7.79 79.68-7.87L79.68-7.87L79.68-7.87Q77.92-7.95 76.09-8.01L76.09-8.01L76.09-8.01Q74.26-8.06 72.49-8.21L72.49-8.21L72.49-8.21Q70.73-8.36 69.35-8.82L69.35-8.82L69.35-8.82Q67.97-9.28 67.12-10.14L67.12-10.14L67.12-10.14Q66.28-11.01 66.28-12.51L66.28-12.51L66.28-12.51Q66.28-14.06 67.12-15.05L67.12-15.05L67.12-15.05Q67.97-16.04 69.34-16.62L69.34-16.62L69.34-16.62Q70.71-17.21 72.44-17.43L72.44-17.43L72.44-17.43Q74.17-17.65 75.96-17.65L75.96-17.65L75.96-17.65Q78.91-17.65 81.44-17.17L81.44-17.17L81.44-17.17Q83.98-16.69 86.16-15.54L86.16-15.54L86.16-15.54Q86.38-15.43 86.46-15.26L86.46-15.26L86.46-15.26Q86.54-15.09 86.56-14.91L86.56-14.91L86.56-14.91Q86.56-14.62 86.38-14.40L86.38-14.40L86.38-14.40Q86.21-14.17 85.98-14.17L85.98-14.17L85.98-14.17Q85.85-14.17 85.80-14.22L85.80-14.22L85.80-14.22Q83.89-15.18 81.48-15.76L81.48-15.76L81.48-15.76Q79.06-16.33 76.05-16.33L76.05-16.33L76.05-16.33Q74.53-16.33 73.09-16.14L73.09-16.14L73.09-16.14Q71.65-15.95 70.54-15.51L70.54-15.51L70.54-15.51Q69.43-15.07 68.75-14.34L68.75-14.34L68.75-14.34Q68.08-13.61 68.08-12.51L68.08-12.51L68.08-12.51Q68.08-11.39 68.92-10.78L68.92-10.78L68.92-10.78Q69.76-10.17 71.15-9.89L71.15-9.89L71.15-9.89Q72.53-9.61 74.29-9.55L74.29-9.55L74.29-9.55Q76.05-9.48 77.88-9.41L77.88-9.41L77.88-9.41Q79.71-9.34 81.48-9.18L81.48-9.18L81.48-9.18Q83.24-9.01 84.62-8.52L84.62-8.52L84.62-8.52Q86.00-8.04 86.85-7.13L86.85-7.13L86.85-7.13Q87.69-6.22 87.69-4.69L87.69-4.69L87.69-4.69Q87.69-3.32 86.83-2.38L86.83-2.38L86.83-2.38Q85.98-1.44 84.57-0.86L84.57-0.86L84.57-0.86Q83.15-0.29 81.30-0.03L81.30-0.03L81.30-0.03Q79.44 0.22 77.47 0.22L77.47 0.22L77.47 0.22Q76.25 0.22 74.85 0.17L74.85 0.17L74.85 0.17Q73.45 0.11 72.04-0.10L72.04-0.10L72.04-0.10Q70.64-0.31 69.35-0.75L69.35-0.75L69.35-0.75Q68.06-1.19 67.09-1.95L67.09-1.95L67.09-1.95Q66.78-2.20 66.78-2.54L66.78-2.54L66.78-2.54Q66.78-2.83 66.94-3.04L66.94-3.04L66.94-3.04Q67.11-3.26 67.36-3.26L67.36-3.26L67.36-3.26Q67.54-3.26 67.63-3.17L67.63-3.17L67.63-3.17Q68.57-2.52 69.66-2.11L69.66-2.11L69.66-2.11Q70.75-1.71 71.96-1.48L71.96-1.48L71.96-1.48Q73.18-1.26 74.50-1.18L74.50-1.18L74.50-1.18Q75.83-1.10 77.24-1.10L77.24-1.10L77.24-1.10Q78.93-1.10 80.49-1.27L80.49-1.27L80.49-1.27Q82.05-1.44 83.25-1.85L83.25-1.85L83.25-1.85Q84.45-2.27 85.17-2.95L85.17-2.95L85.17-2.95Q85.89-3.64 85.89-4.69ZM103.63-16.33L103.63-16.33L103.63-16.33Q101.55-16.33 99.93-15.97L99.93-15.97L99.93-15.97Q98.31-15.61 97.18-14.81L97.18-14.81L97.18-14.81Q96.04-14.02 95.41-12.76L95.41-12.76L95.41-12.76Q94.79-11.50 94.70-9.68L94.70-9.68L111.63-9.68L111.63-10.89L111.63-10.89Q111.63-12.02 111.22-13.00L111.22-13.00L111.22-13.00Q110.80-13.99 109.86-14.73L109.86-14.73L109.86-14.73Q108.91-15.48 107.39-15.90L107.39-15.90L107.39-15.90Q105.86-16.33 103.63-16.33ZM102.47-1.10L102.47-1.10L102.47-1.10Q104.60-1.10 106.20-1.37L106.20-1.37L106.20-1.37Q107.79-1.64 108.94-2.02L108.94-2.02L108.94-2.02Q110.08-2.40 110.81-2.81L110.81-2.81L110.81-2.81Q111.54-3.21 111.95-3.48L111.95-3.48L111.95-3.48Q112.08-3.53 112.13-3.53L112.13-3.53L112.13-3.53Q112.37-3.53 112.59-3.29L112.59-3.29L112.59-3.29Q112.80-3.05 112.80-2.79L112.80-2.79L112.80-2.79Q112.80-2.54 112.57-2.38L112.57-2.38L112.57-2.38Q112.37-2.18 111.71-1.75L111.71-1.75L111.71-1.75Q111.05-1.33 109.81-0.89L109.81-0.89L109.81-0.89Q108.58-0.45 106.76-0.11L106.76-0.11L106.76-0.11Q104.94 0.22 102.44 0.22L102.44 0.22L102.44 0.22Q99.84 0.22 98.02-0.43L98.02-0.43L98.02-0.43Q96.20-1.08 95.05-2.25L95.05-2.25L95.05-2.25Q93.91-3.41 93.39-5.05L93.39-5.05L93.39-5.05Q92.88-6.69 92.88-8.65L92.88-8.65L92.88-8.65Q92.88-11.25 93.71-12.98L93.71-12.98L93.71-12.98Q94.54-14.71 95.99-15.76L95.99-15.76L95.99-15.76Q97.44-16.80 99.40-17.23L99.40-17.23L99.40-17.23Q101.37-17.65 103.63-17.65L103.63-17.65L103.63-17.65Q108.31-17.65 110.63-15.87L110.63-15.87L110.63-15.87Q112.96-14.08 112.96-10.76L112.96-10.76L112.96-10.76Q112.96-10.44 112.91-10.06L112.91-10.06L112.91-10.06Q112.87-9.68 112.79-9.33L112.79-9.33L112.79-9.33Q112.71-8.98 112.61-8.75L112.61-8.75L112.61-8.75Q112.51-8.51 112.42-8.51L112.42-8.51L105.81-8.51L94.67-8.74L94.67-8.74Q94.72-6.65 95.22-5.20L95.22-5.20L95.22-5.20Q95.73-3.75 96.71-2.84L96.71-2.84L96.71-2.84Q97.68-1.93 99.12-1.52L99.12-1.52L99.12-1.52Q100.56-1.10 102.47-1.10ZM121.49-16.87L128.95-16.87L128.95-16.87Q129.29-16.87 129.45-16.70L129.45-16.70L129.45-16.70Q129.62-16.53 129.62-16.33L129.62-16.33L129.62-16.33Q129.62-16.13 129.45-15.96L129.45-15.96L129.45-15.96Q129.29-15.79 128.95-15.79L128.95-15.79L121.49-15.79L121.49-6.27L121.49-6.27Q121.49-4.63 121.83-3.62L121.83-3.62L121.83-3.62Q122.17-2.61 122.74-2.04L122.74-2.04L122.74-2.04Q123.31-1.48 124.09-1.29L124.09-1.29L124.09-1.29Q124.86-1.10 125.74-1.10L125.74-1.10L125.74-1.10Q126.81-1.10 127.85-1.48L127.85-1.48L127.85-1.48Q128.88-1.86 130.23-2.58L130.23-2.58L130.23-2.58Q130.50-2.72 130.75-2.72L130.75-2.72L130.75-2.72Q131.04-2.72 131.21-2.55L131.21-2.55L131.21-2.55Q131.37-2.38 131.37-2.13L131.37-2.13L131.37-2.13Q131.37-1.68 130.88-1.42L130.88-1.42L130.88-1.42Q129.94-0.90 129.21-0.58L129.21-0.58L129.21-0.58Q128.48-0.27 127.86-0.09L127.86-0.09L127.86-0.09Q127.24 0.09 126.66 0.16L126.66 0.16L126.66 0.16Q126.07 0.22 125.42 0.22L125.42 0.22L125.42 0.22Q124.21 0.22 123.16-0.11L123.16-0.11L123.16-0.11Q122.12-0.45 121.35-1.20L121.35-1.20L121.35-1.20Q120.57-1.95 120.13-3.20L120.13-3.20L120.13-3.20Q119.69-4.45 119.69-6.27L119.69-6.27L119.69-15.79L117.72-15.79L117.72-15.79Q117.40-15.79 117.25-15.96L117.25-15.96L117.25-15.96Q117.09-16.13 117.09-16.33L117.09-16.33L117.09-16.33Q117.09-16.53 117.25-16.70L117.25-16.70L117.25-16.70Q117.40-16.87 117.72-16.87L117.72-16.87L119.69-16.87L119.69-22.46L119.69-22.46Q119.69-23.18 119.99-23.37L119.99-23.37L119.99-23.37Q120.28-23.56 120.59-23.56L120.59-23.56L120.59-23.56Q120.97-23.56 121.23-23.37L121.23-23.37L121.23-23.37Q121.49-23.18 121.49-22.46L121.49-22.46L121.49-16.87ZM145.05-16.33L145.05-16.33L145.05-16.33Q142.96-16.33 141.35-15.97L141.35-15.97L141.35-15.97Q139.73-15.61 138.60-14.81L138.60-14.81L138.60-14.81Q137.46-14.02 136.83-12.76L136.83-12.76L136.83-12.76Q136.20-11.50 136.11-9.68L136.11-9.68L153.05-9.68L153.05-10.89L153.05-10.89Q153.05-12.02 152.63-13.00L152.63-13.00L152.63-13.00Q152.22-13.99 151.27-14.73L151.27-14.73L151.27-14.73Q150.33-15.48 148.80-15.90L148.80-15.90L148.80-15.90Q147.28-16.33 145.05-16.33ZM143.88-1.10L143.88-1.10L143.88-1.10Q146.02-1.10 147.61-1.37L147.61-1.37L147.61-1.37Q149.21-1.64 150.35-2.02L150.35-2.02L150.35-2.02Q151.50-2.40 152.23-2.81L152.23-2.81L152.23-2.81Q152.96-3.21 153.36-3.48L153.36-3.48L153.36-3.48Q153.50-3.53 153.54-3.53L153.54-3.53L153.54-3.53Q153.79-3.53 154.00-3.29L154.00-3.29L154.00-3.29Q154.22-3.05 154.22-2.79L154.22-2.79L154.22-2.79Q154.22-2.54 153.99-2.38L153.99-2.38L153.99-2.38Q153.79-2.18 153.13-1.75L153.13-1.75L153.13-1.75Q152.46-1.33 151.23-0.89L151.23-0.89L151.23-0.89Q149.99-0.45 148.17-0.11L148.17-0.11L148.17-0.11Q146.36 0.22 143.86 0.22L143.86 0.22L143.86 0.22Q141.26 0.22 139.44-0.43L139.44-0.43L139.44-0.43Q137.62-1.08 136.47-2.25L136.47-2.25L136.47-2.25Q135.33-3.41 134.81-5.05L134.81-5.05L134.81-5.05Q134.29-6.69 134.29-8.65L134.29-8.65L134.29-8.65Q134.29-11.25 135.13-12.98L135.13-12.98L135.13-12.98Q135.96-14.71 137.40-15.76L137.40-15.76L137.40-15.76Q138.85-16.80 140.82-17.23L140.82-17.23L140.82-17.23Q142.78-17.65 145.05-17.65L145.05-17.65L145.05-17.65Q149.72-17.65 152.05-15.87L152.05-15.87L152.05-15.87Q154.37-14.08 154.37-10.76L154.37-10.76L154.37-10.76Q154.37-10.44 154.33-10.06L154.33-10.06L154.33-10.06Q154.28-9.68 154.21-9.33L154.21-9.33L154.21-9.33Q154.13-8.98 154.03-8.75L154.03-8.75L154.03-8.75Q153.92-8.51 153.83-8.51L153.83-8.51L147.23-8.51L136.09-8.74L136.09-8.74Q136.14-6.65 136.64-5.20L136.64-5.20L136.64-5.20Q137.15-3.75 138.12-2.84L138.12-2.84L138.12-2.84Q139.10-1.93 140.54-1.52L140.54-1.52L140.54-1.52Q141.98-1.10 143.88-1.10ZM161.76-5.03L161.76-5.03L161.76-5.03Q161.76-3.95 162.31-3.21L162.31-3.21L162.31-3.21Q162.86-2.47 163.85-2.00L163.85-2.00L163.85-2.00Q164.84-1.53 166.20-1.31L166.20-1.31L166.20-1.31Q167.56-1.10 169.18-1.10L169.18-1.10L169.18-1.10Q171.15-1.10 172.68-1.38L172.68-1.38L172.68-1.38Q174.21-1.66 175.35-2.09L175.35-2.09L175.35-2.09Q176.50-2.52 177.28-3.02L177.28-3.02L177.28-3.02Q178.07-3.53 178.59-4.00L178.59-4.00L178.59-8.51L178.59-8.51Q176.34-8.83 173.94-9.11L173.94-9.11L173.94-9.11Q171.53-9.39 169.09-9.39L169.09-9.39L169.09-9.39Q167.36-9.39 166.00-9.19L166.00-9.19L166.00-9.19Q164.64-8.98 163.70-8.49L163.70-8.49L163.70-8.49Q162.75-8.00 162.26-7.15L162.26-7.15L162.26-7.15Q161.76-6.31 161.76-5.03ZM171.31-16.33L171.31-16.33L171.31-16.33Q169.15-16.33 167.63-16.22L167.63-16.22L167.63-16.22Q166.10-16.10 165.01-15.92L165.01-15.92L165.01-15.92Q163.92-15.75 163.18-15.54L163.18-15.54L163.18-15.54Q162.44-15.34 161.88-15.14L161.88-15.14L161.88-15.14Q161.61-15.14 161.38-15.41L161.38-15.41L161.38-15.41Q161.16-15.68 161.16-15.99L161.16-15.99L161.16-15.99Q161.16-16.28 161.43-16.42L161.43-16.42L161.43-16.42Q161.61-16.51 162.27-16.71L162.27-16.71L162.27-16.71Q162.93-16.91 164.13-17.13L164.13-17.13L164.13-17.13Q165.33-17.34 167.12-17.50L167.12-17.50L167.12-17.50Q168.91-17.65 171.33-17.65L171.33-17.65L171.33-17.65Q172.48-17.65 173.60-17.51L173.60-17.51L173.60-17.51Q174.72-17.36 175.72-16.98L175.72-16.98L175.72-16.98Q176.72-16.60 177.59-15.92L177.59-15.92L177.59-15.92Q178.45-15.25 179.07-14.18L179.07-14.18L179.07-14.18Q179.69-13.12 180.05-11.60L180.05-11.60L180.05-11.60Q180.41-10.08 180.41-8.04L180.41-8.04L180.41-1.57L180.41-1.57Q180.41-1.30 180.38-1.03L180.38-1.03L180.38-1.03Q180.36-0.76 180.26-0.53L180.26-0.53L180.26-0.53Q180.16-0.29 179.98-0.15L179.98-0.15L179.98-0.15Q179.80 0 179.49 0L179.49 0L179.49 0Q178.97 0 178.78-0.47L178.78-0.47L178.78-0.47Q178.59-0.94 178.59-1.66L178.59-1.66L178.59-3.21L178.59-3.21Q178.14-2.65 177.42-2.04L177.42-2.04L177.42-2.04Q176.70-1.44 175.60-0.93L175.60-0.93L175.60-0.93Q174.50-0.43 172.97-0.10L172.97-0.10L172.97-0.10Q171.44 0.22 169.36 0.22L169.36 0.22L169.36 0.22Q167.40 0.22 165.68-0.07L165.68-0.07L165.68-0.07Q163.96-0.36 162.70-0.99L162.70-0.99L162.70-0.99Q161.43-1.62 160.70-2.62L160.70-2.62L160.70-2.62Q159.97-3.62 159.97-5.03L159.97-5.03L159.97-5.03Q159.97-6.67 160.65-7.76L160.65-7.76L160.65-7.76Q161.34-8.85 162.55-9.51L162.55-9.51L162.55-9.51Q163.76-10.17 165.39-10.44L165.39-10.44L165.39-10.44Q167.02-10.71 168.91-10.71L168.91-10.71L168.91-10.71Q170.32-10.71 171.75-10.61L171.75-10.61L171.75-10.61Q173.17-10.51 174.45-10.32L174.45-10.32L174.45-10.32Q175.73-10.13 176.80-9.85L176.80-9.85L176.80-9.85Q177.87-9.57 178.59-9.19L178.59-9.19L178.59-9.19Q178.59-11.48 177.98-12.87L177.98-12.87L177.98-12.87Q177.37-14.26 176.36-15.04L176.36-15.04L176.36-15.04Q175.35-15.81 174.04-16.07L174.04-16.07L174.04-16.07Q172.72-16.33 171.31-16.33ZM215.22-1.17L215.22-10.98L215.22-10.98Q215.22-12.53 214.96-13.57L214.96-13.57L214.96-13.57Q214.70-14.60 214.18-15.22L214.18-15.22L214.18-15.22Q213.65-15.83 212.86-16.08L212.86-16.08L212.86-16.08Q212.08-16.33 211.00-16.33L211.00-16.33L211.00-16.33Q208.12-16.33 206.23-15.16L206.23-15.16L206.23-15.16Q204.33-13.99 203.07-11.95L203.07-11.95L203.07-1.17L203.07-1.17Q203.07-0.76 202.99-0.54L202.99-0.54L202.99-0.54Q202.91-0.31 202.78-0.19L202.78-0.19L202.78-0.19Q202.64-0.07 202.50-0.03L202.50-0.03L202.50-0.03Q202.35 0 202.22 0L202.22 0L202.22 0Q202.06 0 201.89-0.02L201.89-0.02L201.89-0.02Q201.72-0.04 201.59-0.16L201.59-0.16L201.59-0.16Q201.45-0.27 201.36-0.51L201.36-0.51L201.36-0.51Q201.27-0.74 201.27-1.17L201.27-1.17L201.27-11.95L201.27-11.95Q201.27-13.99 200.32-15.16L200.32-15.16L200.32-15.16Q199.36-16.33 197.25-16.33L197.25-16.33L197.25-16.33Q195.66-16.33 194.29-15.97L194.29-15.97L194.29-15.97Q192.92-15.61 191.85-15.00L191.85-15.00L191.85-15.00Q190.78-14.40 190.06-13.58L190.06-13.58L190.06-13.58Q189.35-12.76 189.08-11.86L189.08-11.86L189.08-1.17L189.08-1.17Q189.08-0.38 188.82-0.19L188.82-0.19L188.82-0.19Q188.56 0 188.29 0L188.29 0L188.29 0Q188.13 0 187.95-0.02L187.95-0.02L187.95-0.02Q187.77-0.04 187.63-0.16L187.63-0.16L187.63-0.16Q187.48-0.27 187.38-0.51L187.38-0.51L187.38-0.51Q187.28-0.74 187.28-1.17L187.28-1.17L187.28-16.10L187.28-16.10Q187.28-16.82 187.57-17.01L187.57-17.01L187.57-17.01Q187.86-17.21 188.20-17.21L188.20-17.21L188.20-17.21Q188.58-17.21 188.82-17.01L188.82-17.01L188.82-17.01Q189.05-16.82 189.05-16.10L189.05-16.10L189.05-13.34L189.05-13.34Q189.41-14.35 190.19-15.16L190.19-15.16L190.19-15.16Q190.96-15.97 192.03-16.52L192.03-16.52L192.03-16.52Q193.10-17.07 194.42-17.36L194.42-17.36L194.42-17.36Q195.75-17.65 197.21-17.65L197.21-17.65L197.21-17.65Q198.91-17.65 199.96-17.19L199.96-17.19L199.96-17.19Q201.00-16.73 201.59-16.07L201.59-16.07L201.59-16.07Q202.17-15.41 202.41-14.69L202.41-14.69L202.41-14.69Q202.64-13.97 202.75-13.45L202.75-13.45L202.75-13.45Q203.16-14.15 203.84-14.89L203.84-14.89L203.84-14.89Q204.53-15.63 205.53-16.25L205.53-16.25L205.53-16.25Q206.53-16.87 207.88-17.26L207.88-17.26L207.88-17.26Q209.22-17.65 210.95-17.65L210.95-17.65L210.95-17.65Q214.05-17.65 215.54-16.07L215.54-16.07L215.54-16.07Q217.02-14.49 217.02-10.98L217.02-10.98L217.02-1.17L217.02-1.17Q217.02-0.76 216.93-0.54L216.93-0.54L216.93-0.54Q216.84-0.31 216.71-0.19L216.71-0.19L216.71-0.19Q216.59-0.07 216.43-0.03L216.43-0.03L216.43-0.03Q216.28 0 216.14 0L216.14 0L216.14 0Q215.96 0 215.80-0.02L215.80-0.02L215.80-0.02Q215.65-0.04 215.51-0.16L215.51-0.16L215.51-0.16Q215.38-0.27 215.30-0.51L215.30-0.51L215.30-0.51Q215.22-0.74 215.22-1.17L215.22-1.17ZM222.41-1.17L222.41-1.17L222.41-1.17Q222.41-1.82 222.80-2.22L222.80-2.22L222.80-2.22Q223.19-2.63 223.85-2.63L223.85-2.63L223.85-2.63Q224.45-2.63 224.89-2.22L224.89-2.22L224.89-2.22Q225.33-1.82 225.33-1.17L225.33-1.17L225.33-1.17Q225.33-0.54 224.89-0.16L224.89-0.16L224.89-0.16Q224.45 0.22 223.85 0.22L223.85 0.22L223.85 0.22Q223.19 0.22 222.80-0.16L222.80-0.16L222.80-0.16Q222.41-0.54 222.41-1.17ZM232.99-15.88L232.99-1.42L232.99-1.42Q232.99-1.12 232.96-0.86L232.96-0.86L232.96-0.86Q232.94-0.61 232.86-0.42L232.86-0.42L232.86-0.42Q232.79-0.22 232.61-0.11L232.61-0.11L232.61-0.11Q232.43 0 232.09 0L232.09 0L232.09 0Q231.46 0 231.33-0.38L231.33-0.38L231.33-0.38Q231.19-0.76 231.19-1.42L231.19-1.42L231.19-15.83L231.19-15.83Q231.19-16.40 231.35-16.80L231.35-16.80L231.35-16.80Q231.50-17.21 232.13-17.21L232.13-17.21L232.13-17.21Q232.70-17.21 232.84-16.80L232.84-16.80L232.84-16.80Q232.99-16.40 232.99-15.88L232.99-15.88ZM230.90-22.28L230.90-22.28L230.90-22.28Q230.90-22.80 231.24-23.15L231.24-23.15L231.24-23.15Q231.57-23.49 232.09-23.49L232.09-23.49L232.09-23.49Q232.61-23.49 232.96-23.15L232.96-23.15L232.96-23.15Q233.32-22.80 233.32-22.28L233.32-22.28L233.32-22.28Q233.32-21.76 232.96-21.45L232.96-21.45L232.96-21.45Q232.61-21.14 232.09-21.14L232.09-21.14L232.09-21.14Q231.57-21.14 231.24-21.45L231.24-21.45L231.24-21.45Q230.90-21.76 230.90-22.28ZM250.82 0.22L250.82 0.22L250.82 0.22Q247.72 0.22 245.59-0.39L245.59-0.39L245.59-0.39Q243.45-1.01 242.14-2.16L242.14-2.16L242.14-2.16Q240.83-3.30 240.24-4.94L240.24-4.94L240.24-4.94Q239.66-6.58 239.66-8.65L239.66-8.65L239.66-8.65Q239.66-11.03 240.32-12.72L240.32-12.72L240.32-12.72Q240.98-14.42 242.36-15.52L242.36-15.52L242.36-15.52Q243.75-16.62 245.85-17.14L245.85-17.14L245.85-17.14Q247.95-17.65 250.82-17.65L250.82-17.65L250.82-17.65Q253.70-17.65 255.80-17.14L255.80-17.14L255.80-17.14Q257.90-16.62 259.28-15.52L259.28-15.52L259.28-15.52Q260.66-14.42 261.32-12.72L261.32-12.72L261.32-12.72Q261.98-11.03 261.98-8.65L261.98-8.65L261.98-8.65Q261.98-6.58 261.40-4.94L261.40-4.94L261.40-4.94Q260.82-3.30 259.50-2.16L259.50-2.16L259.50-2.16Q258.19-1.01 256.05-0.39L256.05-0.39L256.05-0.39Q253.92 0.22 250.82 0.22ZM250.82-1.10L250.82-1.10L250.82-1.10Q252.87-1.10 254.35-1.40L254.35-1.40L254.35-1.40Q255.83-1.71 256.87-2.25L256.87-2.25L256.87-2.25Q257.92-2.79 258.56-3.50L258.56-3.50L258.56-3.50Q259.20-4.22 259.57-5.06L259.57-5.06L259.57-5.06Q259.94-5.91 260.06-6.82L260.06-6.82L260.06-6.82Q260.19-7.73 260.19-8.65L260.19-8.65L260.19-8.65Q260.19-10.74 259.65-12.20L259.65-12.20L259.65-12.20Q259.11-13.66 257.96-14.58L257.96-14.58L257.96-14.58Q256.82-15.50 255.04-15.91L255.04-15.91L255.04-15.91Q253.27-16.33 250.82-16.33L250.82-16.33L250.82-16.33Q248.35-16.33 246.59-15.91L246.59-15.91L246.59-15.91Q244.82-15.50 243.68-14.58L243.68-14.58L243.68-14.58Q242.53-13.66 241.99-12.20L241.99-12.20L241.99-12.20Q241.46-10.74 241.46-8.65L241.46-8.65L241.46-8.65Q241.46-7.73 241.58-6.82L241.58-6.82L241.58-6.82Q241.70-5.91 242.07-5.06L242.07-5.06L242.07-5.06Q242.44-4.22 243.08-3.50L243.08-3.50L243.08-3.50Q243.72-2.79 244.77-2.25L244.77-2.25L244.77-2.25Q245.81-1.71 247.29-1.40L247.29-1.40L247.29-1.40Q248.78-1.10 250.82-1.10Z" fill="url(#editing-outline-gradient)"></path></g></g><style>text {
  font-size: 64px;
  font-family: Arial Black;
  dominant-baseline: central;
  text-anchor: middle;
}</style></svg>